<?xml version="1.0" standalone="no"?>
<!DOCTYPE svg PUBLIC "-//W3C//DTD SVG 20010904//EN"
 "http://www.w3.org/TR/2001/REC-SVG-20010904/DTD/svg10.dtd">
<svg version="1.0" xmlns="http://www.w3.org/2000/svg"
 width="700.000000pt" height="700.000000pt" viewBox="0 0 700.000000 700.000000"
 preserveAspectRatio="xMidYMid meet">
<metadata>
Created by potrace 1.11, written by Peter Selinger 2001-2013
</metadata>
<g transform="translate(0.000000,700.000000) scale(0.100000,-0.100000)"
fill="#000000" stroke="none">
<path d="M3310 6994 c-389 -33 -616 -77 -910 -174 -1045 -344 -1876 -1175
-2220 -2220 -122 -369 -174 -699 -174 -1100 0 -241 9 -361 45 -580 174 -1064
853 -2004 1812 -2511 403 -213 814 -337 1292 -391 142 -16 548 -16 690 0 820
93 1521 419 2094 976 535 521 891 1200 1010 1926 36 219 45 339 45 580 0 241
-9 361 -45 580 -174 1064 -853 2004 -1812 2511 -392 207 -793 331 -1242 384
-126 15 -493 27 -585 19z m434 -841 c3 -60 8 -172 12 -249 l6 -142 -118 -6
c-264 -13 -438 -27 -517 -42 -439 -81 -860 -299 -1196 -619 -338 -323 -581
-780 -640 -1210 -6 -44 -13 -92 -16 -107 l-4 -28 2226 0 2226 0 -7 53 c-32
244 -126 536 -248 767 -107 203 -194 321 -404 549 -76 83 -140 155 -142 160
-1 4 79 84 178 176 177 163 182 167 199 149 137 -144 300 -327 353 -395 238
-305 426 -702 514 -1084 23 -101 54 -285 54 -322 0 -17 7 -38 15 -47 13 -12
15 -55 15 -260 0 -135 -4 -246 -9 -246 -4 0 -14 -48 -21 -107 -38 -336 -150
-682 -313 -968 -427 -754 -1210 -1286 -2062 -1401 -91 -12 -427 -33 -551 -34
l-32 0 -6 108 c-3 59 -8 171 -12 248 l-6 142 118 6 c264 13 438 27 517 42 439
81 860 299 1196 619 338 323 581 780 640 1210 6 44 13 92 16 108 l5 27 -2227
0 -2226 0 7 -52 c32 -245 126 -537 248 -768 107 -203 194 -321 404 -549 76
-83 140 -155 142 -160 1 -4 -79 -84 -178 -176 -177 -163 -182 -167 -199 -149
-137 144 -300 327 -353 395 -238 305 -426 702 -514 1084 -23 101 -54 285 -54
322 0 17 -7 38 -15 47 -13 12 -15 55 -15 260 0 135 4 246 9 246 4 0 14 48 21
108 38 335 150 681 313 967 433 765 1227 1297 2097 1406 86 11 304 23 481 27
l67 2 6 -107z"/>
</g>
</svg>
